<svg width="48" height="48" viewBox="0 0 48 48" fill="none" xmlns="http://www.w3.org/2000/svg">
<g clip-path="url(#clip0_8_197)">
<path d="M46.4925 24.2148C46.4925 30.637 44.0434 36.7962 39.6838 41.3373C35.3243 45.8785 29.4115 48.4297 23.2463 48.4297C17.081 48.4297 11.1682 45.8785 6.80867 41.3373C2.44915 36.7962 0 30.637 0 24.2148C0 17.7927 2.44915 11.6335 6.80867 7.09236C11.1682 2.5512 17.081 0 23.2463 0C29.4115 0 35.3243 2.5512 39.6838 7.09236C44.0434 11.6335 46.4925 17.7927 46.4925 24.2148ZM15.9103 6.24121C5.31469 11.0361 1.21219 24.3604 7.41469 34.6416C7.42719 34.6624 7.44031 34.6631 7.45406 34.6436C14.6484 24.1553 31.8338 24.1396 39.045 34.6123C39.0481 34.6166 39.0521 34.6201 39.0568 34.6224C39.0614 34.6248 39.0666 34.6259 39.0717 34.6257C39.0769 34.6255 39.082 34.624 39.0864 34.6213C39.0909 34.6187 39.0947 34.6149 39.0975 34.6104C43.5891 27.1904 42.7856 17.6084 37.1203 11.1064C33.5503 7.00879 28.5684 4.69727 23.2463 4.69824C20.6288 4.69824 18.1834 5.21257 15.9103 6.24121Z" fill="white"/>
<path d="M24.4541 23.9081C28.5708 23.9081 31.9081 20.5708 31.9081 16.4541C31.9081 12.3373 28.5708 9 24.4541 9C20.3373 9 17 12.3373 17 16.4541C17 20.5708 20.3373 23.9081 24.4541 23.9081Z" fill="white"/>
</g>
<defs>
<clipPath id="clip0_8_197">
<rect width="48" height="48" fill="white"/>
</clipPath>
</defs>
</svg>
