<svg width="4000" height="3811" viewBox="0 0 4000 3811" fill="none" xmlns="http://www.w3.org/2000/svg">
<path d="M1334.12 1164.68C1512.2 805.32 1689.03 445.319 1864.6 84.6735C1893.86 24.693 1942.67 -3.42105 2011.05 0.331404C2089.51 4.64086 2113.69 45.1849 2148.44 115.631C2321.25 465.958 2494.06 816.108 2666.87 1166.08C2667.28 1166.9 2667.88 1167.61 2668.61 1168.14C2669.35 1168.68 2670.2 1169.03 2671.09 1169.16C3054.18 1224.69 3436.65 1280.18 3818.51 1335.65C3877.03 1344.15 3915.71 1353.79 3934.53 1364.58C3994.96 1399.23 4019.5 1490.61 3982.64 1552.97C3975.31 1565.4 3958.69 1584.22 3932.77 1609.43C3649.72 1885.41 3366.81 2161.16 3084.06 2436.67C3083.19 2437.51 3082.55 2438.53 3082.18 2439.65C3081.81 2440.77 3081.73 2441.95 3081.95 2443.09C3147.27 2824.37 3212.74 3205.86 3278.36 3587.56C3288.15 3644.49 3290.35 3684.47 3284.95 3707.52C3269.12 3775.41 3190.13 3824.84 3119.33 3807.51C3106.6 3804.35 3085.82 3795.2 3056.97 3780.07C2706.89 3595.97 2356.4 3411.72 2005.5 3227.32C2002.22 3225.56 1998.94 3225.56 1995.65 3227.32C1657.01 3405.15 1317.87 3583.36 978.234 3761.96C922.468 3791.27 883.473 3807.25 861.249 3809.89C772.938 3820.35 698.085 3736.36 713.478 3645.25C781.324 3244.91 849.609 2844.04 918.334 2442.65C918.803 2440.19 918.129 2438.08 916.311 2436.32C637.658 2164.62 358.447 1892.56 78.6792 1620.16C43.5544 1585.98 21.594 1559.74 12.7981 1541.45C-15.8765 1481.38 5.05773 1405.48 61.3514 1369.59C83.1065 1355.64 109.523 1346.44 140.602 1341.98C536.241 1285.11 931.821 1227.65 1327.34 1169.6C1330.45 1169.13 1332.71 1167.49 1334.12 1164.68Z" fill="#FFF500"/>
</svg>
