<svg width="512" height="512" viewBox="0 0 512 512" fill="none" xmlns="http://www.w3.org/2000/svg">
<path d="M512 93.62V98.51C509.86 112.23 502.42 122.62 489.49 126.44C485.937 127.487 479.393 128.01 469.86 128.01C325.553 127.997 181.243 127.993 36.93 128C30.83 128 26.41 127.633 23.67 126.9C10.49 123.37 1.44 112.01 0 98.44V93.41C1.61 79.43 11.17 67.78 25 64.77C27.34 64.2567 31.3567 64 37.05 64C185.197 64 333.347 64 481.5 64C487.5 64 493.427 66.1433 499.28 70.43C506.687 75.8567 510.927 83.5867 512 93.62Z" fill="white"/>
<path d="M512 253.6V258.51C509.86 272.23 502.42 282.62 489.49 286.44C485.937 287.487 479.393 288.01 469.86 288.01C325.553 287.997 181.243 287.993 36.93 288C30.83 288 26.41 287.633 23.67 286.9C10.49 283.37 1.44 272.01 0 258.44V253.4C1.62 239.43 11.17 227.79 24.99 224.77C27.3433 224.257 31.37 224 37.07 224C181.677 224.007 326.287 224.003 470.9 223.99C479.753 223.99 485.937 224.507 489.45 225.54C502.39 229.36 510 239.84 512 253.6Z" fill="white"/>
<path d="M512 413.6V418.51C509.87 432.22 502.41 442.62 489.49 446.44C485.937 447.487 479.393 448.01 469.86 448.01C325.553 447.997 181.243 447.993 36.93 448C30.83 448 26.41 447.633 23.67 446.9C10.49 443.37 1.44 432.01 0 418.43V413.4C1.62 399.43 11.17 387.79 24.99 384.77C27.3433 384.257 31.37 384 37.07 384C181.677 384.007 326.287 384.003 470.9 383.99C479.753 383.99 485.937 384.507 489.45 385.54C502.39 389.36 510 399.84 512 413.6Z" fill="white"/>
</svg>
