<svg width="55" height="55" viewBox="0 0 55 55" fill="none" xmlns="http://www.w3.org/2000/svg">
<path d="M39.2734 0H39.5624C40.9789 0.145378 41.9185 0.886231 42.3812 2.22256C42.3858 2.23623 42.3936 2.2486 42.4039 2.25868C42.4141 2.26875 42.4266 2.27625 42.4402 2.28057C45.1591 3.13779 45.433 6.9126 42.7722 8.04375C42.1613 8.30371 41.511 8.35241 40.8214 8.18984C40.7856 8.18197 40.7534 8.18949 40.7247 8.2124C39.0489 9.54658 36.6072 8.86553 35.8993 6.82559C35.5491 5.81654 35.7217 4.8347 36.4171 3.88008C36.44 3.84785 36.4475 3.8124 36.4397 3.77373C36.0465 1.87129 37.3055 0.174023 39.2734 0ZM40.9213 3.67275C40.9113 3.52594 40.9005 3.32256 40.8891 3.0626C40.8053 1.20205 38.1734 1.13652 37.9865 2.9584C37.936 3.44932 38.1906 3.821 38.3636 4.23994C38.3779 4.27432 38.3704 4.30332 38.341 4.32695C38.1999 4.44082 38.0578 4.55505 37.9146 4.66963C36.821 5.54404 37.3925 7.26816 38.7879 7.2918C39.5055 7.30469 39.9029 6.80947 40.3036 6.27988C40.314 6.26586 40.3292 6.25621 40.3463 6.25283C40.3634 6.24946 40.3811 6.25259 40.396 6.26162C40.7752 6.49365 41.2285 6.69668 41.6668 6.6752C43.131 6.6043 43.522 4.62559 42.2759 3.9499C41.9031 3.74795 41.4219 3.73936 40.9847 3.73291C40.9453 3.73219 40.9242 3.71214 40.9213 3.67275Z" fill="white"/>
<path d="M15.4472 2.28164C16.5494 1.49388 17.6541 1.44375 18.7612 2.13125C19.1895 2.39765 19.5153 2.76719 19.7388 3.23984C20.2834 4.39248 20.0395 5.67295 19.1146 6.56885C19.0896 6.59391 19.0774 6.62399 19.0781 6.65908C19.1404 8.71406 17.3357 10.131 15.3549 9.52402C15.3239 9.51435 15.29 9.51704 15.2603 9.53154C12.5522 10.8775 9.87098 7.79668 11.7014 5.34424C11.7215 5.31774 11.7308 5.28802 11.7294 5.25508C11.69 3.8858 12.259 2.93405 13.4363 2.3998C14.0128 2.13769 14.653 2.10368 15.357 2.29775C15.3724 2.3021 15.3886 2.3029 15.4042 2.30011C15.4199 2.29732 15.4346 2.291 15.4472 2.28164ZM15.7459 4.29795C15.4129 4.11318 15.0068 3.79521 14.6373 3.79199C14.1918 3.78841 13.8456 3.94381 13.5985 4.2582C13.2032 4.76201 13.3547 5.20566 13.4879 5.75888C13.4965 5.79326 13.4875 5.82262 13.461 5.84697C13.0539 6.22939 12.6854 6.49043 12.737 7.12636C12.8251 8.20058 14.0293 8.60019 14.8102 7.90625C14.9083 7.81888 15.0154 7.73079 15.1314 7.64199C15.1444 7.63182 15.1604 7.6262 15.1769 7.62601C15.1934 7.62581 15.2095 7.63105 15.2227 7.64092C15.5837 7.91269 16.0166 8.12002 16.4699 8.03515C17.2627 7.88691 17.6376 7.10273 17.3862 6.3626C17.3397 6.2251 17.296 6.08258 17.2552 5.93506C17.2451 5.89997 17.2555 5.87275 17.2863 5.85342C17.9233 5.4581 18.5303 5.19492 18.3895 4.30439C18.2101 3.16787 16.8265 2.96054 16.1766 3.84892C16.0678 3.99717 15.9528 4.14183 15.8318 4.28291C15.8075 4.31155 15.7788 4.31657 15.7459 4.29795Z" fill="white"/>
<path d="M39.4604 55H14.2485C12.8319 46.4435 11.4186 37.8859 10.0085 29.3272C9.88892 28.5989 9.84739 28.0396 9.88391 27.6493C9.972 26.7126 10.3122 25.8586 10.9044 25.0873C10.9172 25.0705 10.9239 25.0498 10.9233 25.0287C10.9227 25.0076 10.9149 24.9873 10.9012 24.9713C9.25549 23.0656 10.4994 20.1416 12.9798 19.9214C12.9881 19.9207 12.9961 19.918 13.0032 19.9136C13.0103 19.9092 13.0162 19.9032 13.0205 19.8961C13.0248 19.889 13.0273 19.8809 13.0279 19.8726C13.0285 19.8643 13.0271 19.856 13.0239 19.8483C12.5584 18.7884 12.659 17.7951 13.3257 16.8685C13.3445 16.8428 13.3539 16.8117 13.3526 16.7804C13.2731 14.7501 15.0036 13.3085 16.9813 13.8456C16.9974 13.85 17.0143 13.8508 17.0308 13.848C17.0473 13.8452 17.063 13.8389 17.0769 13.8295C17.7794 13.3411 18.555 13.1423 19.4036 13.2333C19.5175 13.2462 19.7162 13.2988 19.8752 13.3182C19.9117 13.3225 19.9336 13.3067 19.9407 13.2709C20.195 12.0112 20.9426 11.222 22.1837 10.9033C22.1952 10.9003 22.2051 10.8931 22.2117 10.8832C22.2182 10.8733 22.2209 10.8613 22.2192 10.8496C21.7755 7.95351 25.0476 6.02851 27.2959 8.01366C27.3081 8.02426 27.3233 8.03078 27.3393 8.03232C27.3553 8.03386 27.3713 8.03034 27.3851 8.02226C28.1872 7.53814 29.0419 7.43108 29.9492 7.70107C29.9901 7.71396 30.0273 7.7068 30.061 7.67958C30.6267 7.23271 31.2501 7.00247 31.9312 6.98886C34.6425 6.93622 36.0648 10.1438 34.2322 12.1494C34.2271 12.1549 34.2232 12.1615 34.2208 12.1686C34.2184 12.1758 34.2175 12.1833 34.2182 12.1908C34.2189 12.1983 34.2212 12.2056 34.2249 12.2121C34.2286 12.2187 34.2336 12.2244 34.2397 12.2289L34.9465 12.7338C34.9583 12.7421 34.9728 12.7459 34.9873 12.7445C35.2441 12.7209 35.5083 12.679 35.7479 12.6865C36.6753 12.7173 37.4784 13.0407 38.1573 13.6565C38.1761 13.6738 38.1996 13.6852 38.225 13.6894C38.2503 13.6936 38.2764 13.6904 38.3002 13.6802C40.6656 12.6747 42.9516 14.9402 42.0568 17.3185C42.0544 17.3247 42.0534 17.3313 42.0538 17.3379C42.0542 17.3445 42.056 17.351 42.059 17.3569C42.0621 17.3627 42.0663 17.3679 42.0715 17.372C42.0766 17.3762 42.0826 17.3792 42.089 17.3809C43.8518 17.8406 44.7842 19.6034 44.0548 21.2899C44.0314 21.3436 44.0303 21.4043 44.0516 21.4586C44.5293 22.6825 44.3194 23.7588 43.4221 24.6877C43.4013 24.7099 43.3892 24.736 43.3856 24.7661L43.2749 25.7436C43.2721 25.7709 43.2771 25.7966 43.29 25.821C43.5915 26.4054 43.773 27.0166 43.8346 27.6547C43.8718 28.0357 43.8328 28.5746 43.7175 29.2714C42.2988 37.8494 40.8798 46.4256 39.4604 55ZM16.7095 20.2469C16.7149 20.2484 16.7198 20.2514 16.7236 20.2557C16.7273 20.2599 16.7297 20.2651 16.7305 20.2707C16.7313 20.2763 16.7304 20.282 16.728 20.2871C16.7257 20.2922 16.7218 20.2965 16.717 20.2995C15.9221 20.8355 15.1841 21.2502 14.6502 22.058C14.6445 22.0667 14.637 22.0742 14.6282 22.0798C14.6194 22.0855 14.6096 22.0894 14.5992 22.0911C14.5888 22.0928 14.5782 22.0923 14.5679 22.0898C14.5577 22.0873 14.548 22.0826 14.5396 22.0763C13.9359 21.6251 13.1366 21.2652 12.432 21.7497C11.8404 22.1565 11.6453 22.7118 11.8465 23.4158C11.8991 23.6006 12.0173 23.7542 12.1215 23.9196C12.1302 23.9335 12.1439 23.9434 12.1598 23.9472C12.1756 23.951 12.1924 23.9484 12.2064 23.94C14.4418 22.6016 17.223 23.2364 18.7355 25.3559C18.7598 25.3895 18.7852 25.3902 18.8117 25.358C19.0255 25.1045 19.235 24.8177 19.4477 24.6146C21.4898 22.6606 24.6007 22.839 26.4774 24.9197C26.5902 25.0443 26.7008 25.2141 26.8168 25.3612C26.8419 25.3934 26.8673 25.3934 26.8931 25.3612C27.0284 25.1851 27.1606 24.9928 27.3024 24.8424C29.4787 22.5285 33.0655 22.7681 34.8939 25.3644C34.8981 25.3706 34.9038 25.3757 34.9104 25.3792C34.9171 25.3827 34.9245 25.3846 34.932 25.3846C34.9395 25.3846 34.9469 25.3827 34.9536 25.3792C34.9602 25.3757 34.9659 25.3706 34.9701 25.3644C36.4676 23.2525 39.2348 22.593 41.5014 23.9422C41.53 23.9594 41.5601 23.9612 41.5916 23.9475C42.0013 23.775 42.2702 23.6049 42.3984 23.4373C42.9838 22.6714 42.6132 22.0752 42.0868 21.4446C42.0625 21.4153 42.0614 21.3848 42.0836 21.3533C42.3823 20.9344 42.711 20.6465 42.682 20.09C42.6497 19.4734 42.1824 18.9879 41.5594 18.9428C41.0287 18.9041 40.367 19.351 39.9094 19.6346C39.9022 19.639 39.8941 19.6415 39.8856 19.6419C39.8772 19.6423 39.8689 19.6405 39.8613 19.6367C39.8538 19.633 39.8473 19.6273 39.8426 19.6204C39.8378 19.6134 39.835 19.6054 39.8342 19.597C39.7644 18.9256 39.7021 18.3401 39.4819 17.6956C39.4757 17.6771 39.4765 17.6571 39.484 17.6392C39.4915 17.6214 39.5053 17.6071 39.5227 17.5989C39.8793 17.4313 40.2768 17.209 40.4798 16.8813C40.874 16.2454 40.5389 15.3452 39.8235 15.1175C38.9834 14.8489 38.5151 15.4752 37.9694 15.95C37.94 15.9758 37.9142 15.9726 37.892 15.9403C37.6697 15.617 37.4387 15.226 37.1938 14.9725C36.358 14.1077 35.4611 14.1872 34.375 14.6319C34.3598 14.6383 34.3429 14.6391 34.3272 14.6344C34.3115 14.6297 34.298 14.6197 34.2891 14.6061C33.955 14.1066 33.7531 13.6469 33.0795 13.5513C32.8776 13.5219 32.6731 13.4922 32.4661 13.4621C32.4303 13.4571 32.411 13.4367 32.4081 13.4009C32.3945 13.2311 32.3877 13.0607 32.3877 12.8895C32.3884 12.4756 32.3143 12.0878 32.1654 11.7262C32.1417 11.6696 32.1578 11.6284 32.2137 11.6026C32.9667 11.2632 33.6617 10.6294 33.4243 9.73134C33.1547 8.70761 31.9731 8.24999 31.133 8.88808C30.8709 9.08788 30.6314 9.42841 30.423 9.71523C30.4185 9.72156 30.4129 9.72693 30.4063 9.73101C30.3997 9.7351 30.3924 9.73782 30.3846 9.73902C30.3769 9.74023 30.369 9.73988 30.3614 9.73801C30.3538 9.73613 30.3466 9.73277 30.3403 9.72812C29.5464 9.15234 28.658 8.84081 27.9093 9.70126C27.6415 10.0092 27.3876 10.3189 27.1477 10.6305C27.1422 10.6374 27.1351 10.6428 27.127 10.6462C27.1189 10.6497 27.1101 10.651 27.1013 10.6502C27.0925 10.6493 27.0841 10.6463 27.0768 10.6413C27.0695 10.6364 27.0636 10.6297 27.0596 10.6219C26.805 10.1202 26.53 9.44882 26.1272 9.12978C25.5492 8.67323 24.7522 8.73232 24.2269 9.24365C23.5114 9.93867 23.8176 10.6648 24.1775 11.4501C24.1954 11.4888 24.1864 11.5199 24.1506 11.5435C23.7904 11.7842 23.4824 12.0792 23.2268 12.4287C23.2046 12.4588 23.1749 12.4753 23.1376 12.4781C23.0331 12.4853 22.9303 12.4881 22.8293 12.4867C22.1031 12.477 21.5671 12.9347 21.5424 13.6565C21.5241 14.1893 21.841 14.4601 22.1257 14.8672C22.1515 14.903 22.1511 14.9388 22.1246 14.9746L21.3705 15.9768C21.3455 16.0098 21.315 16.0155 21.2792 15.994C21.0293 15.8393 20.6333 15.5651 20.0911 15.1712C19.5741 14.7966 19.0144 14.7182 18.4121 14.9359C17.976 15.0928 17.7085 15.4612 17.4625 15.8404C17.4546 15.8533 17.4419 15.8626 17.427 15.8662C17.4122 15.8698 17.3964 15.8675 17.383 15.8598C16.7095 15.4634 16.0413 14.9993 15.3259 15.69C14.8307 16.1691 14.9521 16.6815 15.1078 17.3035C15.1164 17.3372 15.1082 17.3662 15.0831 17.3905C14.6986 17.7633 14.3462 18.0039 14.3494 18.5958C14.3516 19.1641 14.7157 19.6099 15.255 19.7828C15.7448 19.9389 16.2297 20.0936 16.7095 20.2469ZM11.7917 26.7212C11.4995 27.3113 11.3978 27.8753 11.4866 28.4131C12.8616 36.7297 14.2359 45.0409 15.6095 53.3468C15.6138 53.3747 15.6299 53.3887 15.6578 53.3887H19.9246C19.9301 53.3887 19.9355 53.3876 19.9405 53.3854C19.9455 53.3833 19.95 53.3801 19.9536 53.3761C19.9573 53.3722 19.96 53.3675 19.9617 53.3624C19.9634 53.3574 19.9639 53.352 19.9633 53.3468C19.3188 45.2285 18.6746 37.1125 18.0308 28.9985C17.9513 27.9931 17.8961 27.4259 17.8654 27.297C17.5227 25.8478 16.1155 24.8091 14.6556 24.8563C13.3407 24.8993 12.3861 25.5209 11.7917 26.7212ZM22.8078 24.8563C21.2889 24.8778 19.9193 25.9456 19.6378 27.4978C19.5927 27.7463 19.5888 28.1066 19.626 28.5785C20.2763 36.8285 20.928 45.0785 21.5811 53.3285C21.5839 53.3686 21.6054 53.3887 21.6455 53.3887H26.0208C26.0282 53.3887 26.0353 53.3856 26.0406 53.3802C26.0458 53.3747 26.0488 53.3674 26.0488 53.3597C26.0523 45.182 26.0523 37.0022 26.0488 28.8202C26.0488 28.0332 26.0029 27.4803 25.9113 27.1616C25.5245 25.8135 24.1785 24.8359 22.8078 24.8563ZM34.0399 27.3442C33.6016 25.4042 31.4005 24.3149 29.6076 25.1249C28.6967 25.5367 28.1045 26.188 27.8309 27.0789C27.7177 27.447 27.6612 28.1266 27.6612 29.1178C27.6619 37.2009 27.6619 45.2815 27.6612 53.3597C27.6612 53.3674 27.6642 53.3747 27.6697 53.3802C27.6751 53.3856 27.6825 53.3887 27.6902 53.3887H32.0934C32.1021 53.3887 32.1106 53.3854 32.117 53.3794C32.1234 53.3734 32.1272 53.3652 32.1278 53.3564C32.7802 45.1043 33.4311 36.8618 34.0807 28.629C34.1237 28.0847 34.1101 27.6565 34.0399 27.3442ZM42.2243 27.7299C41.9601 25.5073 39.6237 24.2301 37.5998 25.1657C36.6814 25.59 35.9949 26.487 35.808 27.4882C35.798 27.5405 35.7604 27.9787 35.6952 28.803C35.0457 36.9836 34.3961 45.1662 33.7466 53.3511C33.7462 53.3558 33.7467 53.3606 33.7483 53.3652C33.7499 53.3697 33.7524 53.3739 33.7558 53.3774C33.7591 53.381 33.7632 53.3838 33.7677 53.3857C33.7722 53.3877 33.7771 53.3887 33.7821 53.3887H38.0542C38.0807 53.3887 38.0961 53.3754 38.1004 53.3489C39.4539 45.1691 40.8057 36.9943 42.1556 28.8245C42.2329 28.3561 42.2559 27.9913 42.2243 27.7299Z" fill="white"/>
<path d="M48.1057 8.24033C49.225 7.45042 50.3397 7.40852 51.4497 8.11464C52.7162 8.91923 53.0567 10.7583 52.1941 12.0377C52.0846 12.201 51.9116 12.3707 51.7677 12.5426C51.7447 12.5698 51.7336 12.6009 51.7344 12.636C51.7859 14.6803 49.9941 16.0853 48.0219 15.4892C47.9902 15.4795 47.9559 15.4826 47.9263 15.4978C47.1621 15.8766 46.4123 15.9371 45.6768 15.6793C44.0021 15.0928 43.2706 13.185 44.1504 11.6445C44.2234 11.5171 44.295 11.3896 44.3652 11.2621C44.3824 11.2313 44.3899 11.1984 44.3878 11.1633C44.2879 9.133 46.0636 7.76123 48.0176 8.25752C48.0324 8.26122 48.0479 8.2616 48.0631 8.25863C48.0783 8.25566 48.0928 8.24942 48.1057 8.24033ZM49.949 11.8014C50.3035 11.6102 50.5259 11.4787 50.6161 11.4071C51.3272 10.8389 51.165 9.62607 50.2734 9.32529C49.3711 9.02021 48.965 9.61748 48.4934 10.2448C48.4801 10.2628 48.4603 10.2749 48.4381 10.2783C48.416 10.2817 48.3934 10.2762 48.3753 10.2631C47.8983 9.91504 47.2807 9.56269 46.6845 9.86777C46.1223 10.1549 45.91 10.6333 46.0475 11.3029C46.0754 11.4397 46.1076 11.5786 46.1441 11.7197C46.1527 11.7555 46.1434 11.786 46.1162 11.811C45.7424 12.1483 45.3675 12.4491 45.3814 12.997C45.4072 13.9895 46.4804 14.5825 47.314 13.9831C47.4686 13.8721 47.6187 13.7504 47.7641 13.6179C47.792 13.5928 47.8224 13.5889 47.8554 13.6061C48.256 13.8166 48.5267 14.0519 49.0058 14.0143C49.7739 13.953 50.2294 13.2687 50.0908 12.5114C50.0597 12.3395 49.9608 12.1 49.9093 11.8916C49.8992 11.8515 49.9125 11.8214 49.949 11.8014Z" fill="white"/>
<path d="M4.28616 18.2273C3.3566 17.8471 2.74501 17.1961 2.45139 16.2744C1.69192 13.8907 3.97893 11.7466 6.31643 12.4438C6.33707 12.4497 6.35877 12.4507 6.3797 12.4466C6.40064 12.4424 6.4202 12.4334 6.43674 12.4201C8.47453 10.7658 11.4995 12.2966 11.4308 14.8779C11.4079 15.7416 11.0641 16.4767 10.3995 17.0833C10.3875 17.0943 10.378 17.108 10.3719 17.1232C10.3657 17.1385 10.3631 17.1549 10.3641 17.1714C10.594 20.6207 5.95119 21.8249 4.51282 18.6989C4.47414 18.6141 4.42043 18.4261 4.36028 18.2972C4.34452 18.2642 4.31981 18.241 4.28616 18.2273ZM5.80832 16.9512C5.84055 17.2563 5.83303 17.6118 5.92326 17.8707C6.23694 18.7752 7.32405 19.2317 8.14153 18.6452C8.95256 18.0619 8.80754 17.2853 8.53254 16.4409C8.52699 16.4241 8.52786 16.4057 8.535 16.3895C8.54214 16.3732 8.55504 16.3602 8.57121 16.3528C9.32961 16.0123 10.0203 15.3893 9.7926 14.4815C9.52405 13.4127 8.28977 12.9895 7.44866 13.677C7.21233 13.8703 7.00178 14.1808 6.80305 14.4472C6.79346 14.4596 6.77972 14.4682 6.76435 14.4713C6.74897 14.4745 6.73297 14.472 6.71926 14.4644C6.05432 14.0884 5.59563 13.7038 4.77922 14.0379C4.42043 14.1854 4.173 14.4364 4.03694 14.7909C3.75549 15.5257 4.04875 16.2787 4.73625 16.6687C4.92245 16.7739 5.25761 16.8463 5.74172 16.8856C5.75865 16.8869 5.77461 16.8941 5.7868 16.9061C5.79899 16.9181 5.80661 16.934 5.80832 16.9512Z" fill="white"/>
<path d="M23.7789 16.76C24.3536 14.7157 26.5762 13.7844 28.3755 14.9714C28.5366 15.0767 28.6967 15.2378 28.8578 15.3753C28.8872 15.4004 28.9205 15.4097 28.9577 15.4032C29.2424 15.3592 29.5313 15.2969 29.8074 15.3237C31.0084 15.4419 31.914 16.4087 31.9483 17.6226C31.949 17.6548 31.9333 17.6709 31.9011 17.6709H30.4004C30.3631 17.6709 30.3417 17.6526 30.3359 17.6161C30.2672 17.2165 29.9954 16.9136 29.5765 16.9308C29.1919 16.948 28.759 17.3594 28.4474 17.6118C28.4387 17.6189 28.4285 17.624 28.4176 17.6265C28.4066 17.6291 28.3952 17.6292 28.3842 17.6267C28.3733 17.6242 28.363 17.6192 28.3542 17.6122C28.3454 17.6052 28.3384 17.5962 28.3336 17.586C28.1467 17.2015 27.9243 16.7149 27.6407 16.4452C26.9102 15.7545 25.7565 16.0585 25.3988 16.9727C25.2065 17.4657 25.3687 18.1994 25.4386 18.7569C25.4393 18.7625 25.4386 18.7682 25.4366 18.7735C25.4346 18.7788 25.4314 18.7835 25.4271 18.7872C25.4229 18.7909 25.4178 18.7935 25.4123 18.7948C25.4068 18.7961 25.401 18.796 25.3956 18.7945C24.5351 18.5507 23.6135 18.092 22.8744 18.9009C22.656 19.1394 22.5328 19.4283 22.5049 19.7678C22.502 19.8022 22.4834 19.8193 22.449 19.8193H20.9515C20.92 19.8193 20.9046 19.8036 20.9054 19.7721C20.9311 18.4282 21.8152 17.3057 23.0925 16.9286C23.2719 16.876 23.4996 16.8577 23.7101 16.8223C23.746 16.8158 23.7689 16.7951 23.7789 16.76Z" fill="white"/>
<path d="M32.9721 19.1211C34.7349 17.3701 37.6782 18.5099 37.747 21.0063C37.7477 21.0386 37.7319 21.0547 37.6997 21.0547H36.2055C36.1654 21.0547 36.1424 21.0346 36.1367 20.9945C36.0175 20.1566 35.2687 19.6464 34.4889 19.988C33.9281 20.234 33.7885 20.828 33.4952 21.3866C33.4773 21.4203 33.453 21.4256 33.4222 21.4027C32.8603 20.987 32.291 20.3844 31.5358 20.7432C31.1584 20.9215 30.9468 21.2373 30.901 21.6906C30.8991 21.7078 30.8911 21.7237 30.8784 21.7352C30.8657 21.7467 30.8492 21.753 30.8322 21.7529H29.3283C29.2982 21.7529 29.2835 21.7379 29.2843 21.7078C29.3509 20.0417 30.7312 18.8418 32.3877 19.0448C32.5241 19.062 32.71 19.1211 32.8743 19.1512C32.8918 19.1545 32.9099 19.1535 32.9269 19.1482C32.9439 19.143 32.9594 19.1337 32.9721 19.1211Z" fill="white"/>
<path d="M14.6347 27.9427L13.1235 28.1929C13.1024 28.1964 13.0882 28.2163 13.0916 28.2374L14.1142 34.4139C14.1176 34.435 14.1376 34.4492 14.1586 34.4457L15.6699 34.1955C15.691 34.192 15.7052 34.1721 15.7017 34.1511L14.6792 27.9746C14.6757 27.9535 14.6558 27.9393 14.6347 27.9427Z" fill="white"/>
<path d="M32.4801 28.1323L30.9511 28.0093C30.9298 28.0076 30.9111 28.0234 30.9094 28.0447L30.6291 31.529C30.6274 31.5502 30.6433 31.5689 30.6645 31.5706L32.1936 31.6936C32.2149 31.6953 32.2335 31.6795 32.2352 31.6582L32.5156 28.1739C32.5173 28.1526 32.5014 28.134 32.4801 28.1323Z" fill="white"/>
<path d="M32.0031 34.1649L30.4762 34.042C30.4549 34.0403 30.4363 34.0562 30.4346 34.0775L29.9482 40.123C29.9465 40.1442 29.9623 40.1629 29.9836 40.1646L31.5105 40.2875C31.5318 40.2892 31.5505 40.2733 31.5522 40.252L32.0386 34.2065C32.0403 34.1852 32.0244 34.1666 32.0031 34.1649Z" fill="white"/>
<path d="M17.1776 43.3291L15.6684 43.5789C15.6468 43.5825 15.6321 43.6029 15.6357 43.6246L16.2687 47.4483C16.2723 47.47 16.2928 47.4846 16.3144 47.4811L17.8236 47.2312C17.8452 47.2276 17.8599 47.2072 17.8563 47.1855L17.2233 43.3618C17.2197 43.3401 17.1992 43.3255 17.1776 43.3291Z" fill="white"/>
<path d="M31.0108 46.6244L29.4794 46.5039C29.4587 46.5023 29.4406 46.5177 29.439 46.5384L29.2806 48.5517C29.2789 48.5724 29.2944 48.5905 29.3151 48.5922L30.8465 48.7127C30.8672 48.7143 30.8853 48.6989 30.8869 48.6782L31.0454 46.6649C31.047 46.6442 31.0315 46.626 31.0108 46.6244Z" fill="white"/>
</svg>
