<svg width="4000" height="3811" viewBox="0 0 4000 3811" fill="none" xmlns="http://www.w3.org/2000/svg">
<path d="M1378.88 1186.96L1378.84 1187.04C1370.16 1204.38 1354.02 1216.14 1334.8 1219.04L1334.7 1219.06L1334.6 1219.07C939.033 1277.12 543.404 1334.59 147.717 1391.47L147.708 1391.47L147.699 1391.47C122.215 1395.13 102.925 1402.33 88.3468 1411.68L88.2869 1411.72L88.2269 1411.76C53.6663 1433.79 39.9313 1482.13 57.8893 1519.84C62.4803 1529.33 78.4146 1550.13 113.551 1584.33L113.56 1584.33C393.336 1856.75 672.555 2128.81 951.217 2400.52C964.757 2413.7 970.951 2432.44 967.573 2451.34C898.869 2852.62 830.604 3253.36 762.779 3653.58C752.375 3715.16 803.502 3766.37 855.354 3760.24C859.622 3759.73 869.899 3757.16 888.207 3749.66C905.711 3742.49 927.873 3731.94 954.964 3717.7C1294.56 3539.13 1633.65 3360.94 1972.25 3183.14C1990.15 3173.63 2010.96 3173.62 2028.86 3183.11C2379.73 3367.49 2730.19 3551.73 3080.24 3735.82C3109.08 3750.94 3125.03 3757.39 3131.32 3758.97C3151.82 3763.95 3175.68 3759.64 3196.69 3746.8C3217.86 3733.88 3231.89 3714.92 3236.26 3696.16L3236.27 3696.14L3236.27 3696.12C3239.1 3684.03 3238.92 3653.23 3229.08 3596.03L3229.08 3596.03C3163.47 3214.39 3098.01 2832.97 3032.7 2451.74C3031.03 2442.32 3031.8 2432.8 3034.68 2424.03C3037.62 2415.09 3042.67 2407.16 3049.2 2400.82C3331.94 2125.32 3614.83 1849.59 3897.87 1573.63L3897.89 1573.61L3897.91 1573.59C3924 1548.2 3936.05 1533.55 3939.57 1527.57L3939.59 1527.55L3939.6 1527.53C3950.13 1509.71 3953.01 1485.36 3946.67 1460.95C3940.31 1436.43 3926.1 1417.39 3909.67 1407.96C3906.29 1406.03 3897.24 1402.24 3879.31 1397.77C3862.16 1393.49 3839.64 1389.24 3811.33 1385.13C3429.47 1329.66 3047 1274.17 2663.92 1218.64L2663.81 1218.63L2663.71 1218.61C2654.79 1217.28 2646.37 1213.81 2639.15 1208.54C2631.95 1203.29 2626.15 1196.41 2622.19 1188.53L2622.11 1188.37L2622.04 1188.22C2449.22 838.24 2276.41 488.083 2103.6 137.751L2103.6 137.747C2085.64 101.35 2074.36 81.6446 2061.42 69.1684C2051.45 59.5521 2037.96 51.8852 2008.31 50.2563L1378.88 1186.96ZM1378.88 1186.96L1378.92 1186.88M1378.88 1186.96L1378.92 1186.88M1378.92 1186.88C1557.06 827.416 1733.93 467.31 1909.55 106.559M1378.92 1186.88L1909.55 106.559M1909.55 106.559C1920.63 83.8702 1933.85 70.1401 1948.11 61.9309M1909.55 106.559L1948.11 61.9309M1948.11 61.9309C1962.46 53.6635 1981.69 48.7959 2008.3 50.2562L1948.11 61.9309Z" stroke="white" stroke-width="250"/>
</svg>
