<svg width="16" height="15" viewBox="0 0 16 15" fill="none" xmlns="http://www.w3.org/2000/svg">
<g clip-path="url(#clip0_8_203)">
<path d="M15.2816 13.6482V13.7273C15.2175 14.7949 13.9586 15.29 13.1966 14.5286C12.0671 13.4001 10.9397 12.2729 9.81453 11.1469C9.80671 11.1391 9.79832 11.1383 9.78933 11.1445C8.12234 12.2859 6.0115 12.5452 4.11921 11.8014C3.74421 11.654 3.39587 11.4592 3.05457 11.2485C2.74314 11.0563 2.46423 10.8185 2.19412 10.5727C2.03269 10.4256 1.89412 10.2694 1.7488 10.1089C1.50388 9.83789 1.3032 9.52764 1.11335 9.2165C0.58396 8.34727 0.308862 7.31191 0.281616 6.29766V6.01934C0.301147 5.32852 0.431226 4.66201 0.671851 4.01982C0.774097 3.74707 0.918237 3.43271 1.0741 3.17344C1.17693 3.00205 1.27595 2.82861 1.39607 2.66777C1.62488 2.36162 1.86277 2.054 2.14695 1.79473C2.42966 1.5375 2.71882 1.28144 3.04636 1.08076C3.395 0.867187 3.74744 0.668261 4.12917 0.51914C5.55505 -0.0377934 7.14587 -0.0351567 8.57029 0.524707C8.83455 0.628417 9.11785 0.764355 9.36072 0.911425C9.52156 1.00869 9.68386 1.10039 9.83474 1.21318C10.1391 1.44111 10.4453 1.67695 10.7034 1.95908C10.8513 2.12139 10.9967 2.27725 11.1291 2.45332C11.1806 2.52207 11.2322 2.59072 11.2838 2.65928C11.3966 2.80957 11.4885 2.97041 11.5861 3.13037C11.7382 3.37939 11.8759 3.66914 11.9825 3.94043C12.6883 5.73428 12.4905 7.72734 11.488 9.36269C11.4807 9.37461 11.482 9.38545 11.4918 9.39521C12.6338 10.5366 13.777 11.6801 14.9216 12.8256C15.1405 13.0445 15.2605 13.3187 15.2816 13.6482ZM10.4368 6.1623C10.4368 5.07644 10.0054 4.03506 9.23762 3.26724C8.4698 2.49942 7.42841 2.06807 6.34255 2.06807C5.25669 2.06807 4.21531 2.49942 3.44749 3.26724C2.67967 4.03506 2.24832 5.07644 2.24832 6.1623C2.24832 7.24816 2.67967 8.28955 3.44749 9.05737C4.21531 9.82519 5.25669 10.2565 6.34255 10.2565C7.42841 10.2565 8.4698 9.82519 9.23762 9.05737C10.0054 8.28955 10.4368 7.24816 10.4368 6.1623Z" fill="white"/>
</g>
<defs>
<clipPath id="clip0_8_203">
<rect width="15" height="15" fill="white" transform="translate(0.281616)"/>
</clipPath>
</defs>
</svg>
